<?xml version="1.0" encoding="utf-8"?>
<!-- Generator: Adobe Illustrator 16.0.4, SVG Export Plug-In . SVG Version: 6.00 Build 0)  -->
<!DOCTYPE svg PUBLIC "-//W3C//DTD SVG 1.1//EN" "http://www.w3.org/Graphics/SVG/1.1/DTD/svg11.dtd">
<svg version="1.1" xmlns="http://www.w3.org/2000/svg"  x="0px" y="0px"
	 width="295px" height="100px" viewBox="0 0 295 100" enable-background="new 0 0 295 100" xml:space="preserve">
<g>
	<path fill="#FFFFFF" d="M160.868,86.761c-4.147,7.819-12.579,13.055-22.03,13.055c-13.803,0-25.089-11.287-25.089-25.158
		c0-13.802,11.287-25.089,25.089-25.089c9.383,0,17.61,5.235,21.961,12.782c-4.283,2.176-4.623,2.38-9.383,4.76
		c-2.516-4.352-7.139-7.14-12.579-7.14c-8.159,0-14.687,6.527-14.687,14.687c0,8.228,6.527,14.687,14.687,14.687
		c5.439,0,10.879-2.72,12.851-7.343h-1.088c-2.176,0-7.14,0.068-9.859,0.068c-1.292,0-1.904,0-1.904-0.068v-8.976
		c6.867,0,16.455,0.068,24.818,0.068C163.656,74.521,163.384,83.497,160.868,86.761z"/>
	<path fill="#FFFFFF" d="M178.823,50.453h10.675v48.546h-10.675V50.453z"/>
	<path fill="#FFFFFF" d="M207.384,98.659V50.249h10.471v39.436h24.886v8.975H207.384z"/>
	<path fill="#FFFFFF" d="M267.357,79.621v10.335h27.401v8.976h-37.736V50.249h35.424v8.975h-25.089V70.17h22.166v9.451H267.357z"/>
</g>
<path fill="#FFFFFF" d="M-0.5,0v100h51.443c-0.169,0-0.301-0.281-0.396-0.422s-0.109-0.488-0.036-0.627L58.642,80H49.5v-6h11.715
	l10.354-23.914C71.665,49.9,71.808,50,72.001,50h5.004c0.215,0,0.358-0.1,0.431,0.086L87.79,74H99.5V0H-0.5z"/>
<polygon fill="#FFFFFF" points="68.008,74 80.997,74 74.519,58.871 "/>
<path fill="#FFFFFF" d="M91.872,99.465L83.626,80h-18.25l-8.244,19.465C57.062,99.65,56.917,100,56.703,100h35.6
	C92.087,100,91.943,99.65,91.872,99.465z"/>
<path fill="#FFFFFF" d="M98.495,99.052c0.071,0.137,0.059,0.396-0.036,0.536C98.363,99.729,98.231,100,98.063,100H99.5V80h-9.136
	L98.495,99.052z"/>
</svg>
