<?xml version="1.0" encoding="utf-8"?>
<!-- Generator: Adobe Illustrator 16.0.4, SVG Export Plug-In . SVG Version: 6.00 Build 0)  -->
<!DOCTYPE svg PUBLIC "-//W3C//DTD SVG 1.1//EN" "http://www.w3.org/Graphics/SVG/1.1/DTD/svg11.dtd">
<svg version="1.1" xmlns="http://www.w3.org/2000/svg"  x="0px" y="0px"
	 width="100px" height="100px" viewBox="0 0 100 100" enable-background="new 0 0 100 100" xml:space="preserve">
<path fill="none" stroke="#FFFFFF" stroke-width="4" stroke-miterlimit="10" d="M98,78.8C98,89.404,89.404,98,78.8,98H21.2
	C10.596,98,2,89.404,2,78.8V21.2C2,10.596,10.596,2,21.2,2h57.6C89.404,2,98,10.596,98,21.2V78.8z"/>
<path fill="#FFFFFF" d="M76,49.018H63.302l-10.769-23.93c-0.075-0.185-0.225-0.07-0.448-0.07h-5.204c-0.199,0-0.35-0.115-0.449,0.07
	l-10.768,23.93H24v6h8.986l-8.457,18.956c-0.074,0.14-0.062,0.485,0.037,0.626c0.1,0.141,0.238,0.418,0.414,0.418h5.99
	c0.223,0,0.373-0.336,0.447-0.523l8.574-19.477h18.979l8.575,19.477c0.075,0.188,0.226,0.523,0.449,0.523h5.989
	c0.176,0,0.312-0.277,0.412-0.418s0.111-0.383,0.037-0.521l-8.455-19.061H76V49.018z M49.5,33.87l6.736,15.148H42.729L49.5,33.87z"
	/>
</svg>
