<?xml version="1.0" encoding="utf-8"?>
<!-- Generator: Adobe Illustrator 16.0.4, SVG Export Plug-In . SVG Version: 6.00 Build 0)  -->
<!DOCTYPE svg PUBLIC "-//W3C//DTD SVG 1.1//EN" "http://www.w3.org/Graphics/SVG/1.1/DTD/svg11.dtd">
<svg version="1.1" xmlns="http://www.w3.org/2000/svg"  x="0px" y="0px"
	 width="100px" height="100px" viewBox="0 0 100 100" enable-background="new 0 0 100 100" xml:space="preserve">
<path fill="#1E2326" d="M100,80c0,11.046-8.954,20-20,20H20C8.954,100,0,91.046,0,80V20C0,8.954,8.954,0,20,0h60
	c11.046,0,20,8.954,20,20V80z"/>
<path fill="#FFFFFF" d="M76,50H63.302L52.533,26.07C52.458,25.885,52.309,26,52.085,26h-5.204c-0.2,0-0.35-0.115-0.449,0.07
	L35.664,50H24v6h8.987l-8.457,18.956c-0.075,0.139-0.062,0.485,0.037,0.626S24.805,76,24.98,76h5.99
	c0.224,0,0.374-0.336,0.448-0.523L39.992,56h18.979l8.575,19.477C67.621,75.664,67.771,76,67.995,76h5.99
	c0.175,0,0.312-0.277,0.412-0.418c0.099-0.141,0.111-0.383,0.037-0.521L65.979,56H76V50z M49.5,34.852L56.236,50H42.729L49.5,34.852
	z"/>
</svg>
